<svg width="180" height="45" viewBox="0 0 180 45" fill="none" xmlns="http://www.w3.org/2000/svg">
<rect width="45" height="45" rx="8" fill="white"/>
<path d="M59.68 36.4C57.84 36.4 56.2267 35.9733 54.84 35.12C53.4533 34.2667 52.3733 33.1067 51.6 31.64C50.8533 30.1467 50.48 28.4667 50.48 26.6C50.48 24.52 50.8533 22.7467 51.6 21.28C52.3733 19.8133 53.4267 18.7067 54.76 17.96C56.0933 17.1867 57.6 16.8 59.28 16.8C60.9333 16.8 62.4267 17.1333 63.76 17.8C65.0933 18.4667 66.1467 19.4133 66.92 20.64C67.6933 21.84 68.08 23.2267 68.08 24.8C68.08 25.3067 68.0533 25.88 68 26.52L67.92 27.32H55.88C55.88 29.8533 56.2667 31.7067 57.04 32.88C57.8133 34.0267 58.8933 34.6 60.28 34.6C61.56 34.6 62.6267 34.32 63.48 33.76C64.36 33.1733 65.2 32.3467 66 31.28L67.24 32.2C66.4667 33.4 65.4933 34.4 64.32 35.2C63.1733 36 61.6267 36.4 59.68 36.4ZM62.68 25.52C62.68 23.0133 62.3867 21.24 61.8 20.2C61.2133 19.1333 60.3733 18.6 59.28 18.6C58.2667 18.6 57.44 19.1467 56.8 20.24C56.1867 21.3067 55.88 23.0667 55.88 25.52H62.68ZM72.5516 22.4C72.5516 21.04 72.3649 20.04 71.9916 19.4C71.6449 18.7333 70.9116 18.4 69.7916 18.4H69.3916V17.2H73.3516C74.2582 17.2 74.9649 17.32 75.4716 17.56C76.0049 17.7733 76.4182 18.1467 76.7116 18.68C78.0716 17.4267 80.0182 16.8 82.5516 16.8C85.0849 16.8 86.9782 17.4 88.2316 18.6C89.5116 19.7733 90.1516 21.6267 90.1516 24.16V36H84.9516V24.12C84.9516 22.28 84.6049 20.9333 83.9116 20.08C83.2449 19.2267 82.3249 18.8 81.1516 18.8C80.3249 18.8 79.5916 18.92 78.9516 19.16C78.3382 19.3733 77.8449 19.6667 77.4716 20.04L77.5916 20.6C77.6982 20.92 77.7516 21.44 77.7516 22.16V36H72.5516V22.4ZM101.399 36.4C99.5594 36.4 98.1327 35.9067 97.1194 34.92C96.106 33.9067 95.5994 32.4533 95.5994 30.56V19H93.1994V17.2H95.5994V13.6L97.5994 11.2H100.799V17.2H105.199V19H100.799V30.8C100.799 32.24 100.973 33.24 101.319 33.8C101.666 34.3333 102.186 34.6 102.879 34.6C103.626 34.6 104.373 34.4267 105.119 34.08C105.413 33.92 105.719 33.7333 106.039 33.52L106.599 34.64C106.253 34.9333 105.839 35.2267 105.359 35.52C104.239 36.1067 102.919 36.4 101.399 36.4ZM117.54 36.4C115.593 36.4 113.887 35.9733 112.42 35.12C110.98 34.24 109.873 33.0667 109.1 31.6C108.327 30.1067 107.94 28.44 107.94 26.6C107.94 24.76 108.327 23.1067 109.1 21.64C109.873 20.1467 110.98 18.9733 112.42 18.12C113.887 17.24 115.593 16.8 117.54 16.8C119.487 16.8 121.18 17.24 122.62 18.12C124.087 18.9733 125.207 20.1467 125.98 21.64C126.753 23.1067 127.14 24.76 127.14 26.6C127.14 28.44 126.753 30.1067 125.98 31.6C125.207 33.0667 124.087 34.24 122.62 35.12C121.18 35.9733 119.487 36.4 117.54 36.4ZM117.54 34.6C118.9 34.6 119.94 33.8667 120.66 32.4C121.38 30.9333 121.74 29 121.74 26.6C121.74 24.2 121.38 22.2667 120.66 20.8C119.94 19.3333 118.9 18.6 117.54 18.6C116.18 18.6 115.14 19.3333 114.42 20.8C113.7 22.2667 113.34 24.2 113.34 26.6C113.34 29 113.7 30.9333 114.42 32.4C115.14 33.8667 116.18 34.6 117.54 34.6ZM143.81 17.6C144.29 17.9467 144.637 18.3333 144.85 18.76C145.064 19.16 145.17 19.3733 145.17 19.4L143.13 20.96C142.944 20.72 142.704 20.4667 142.41 20.2C141.824 19.6667 141.144 19.4 140.37 19.4C138.824 19.4 137.637 19.8133 136.81 20.64L136.89 21.24C136.944 21.72 136.97 22.16 136.97 22.56V36H131.77V22.4C131.77 21.04 131.584 20.04 131.21 19.4C130.864 18.7333 130.13 18.4 129.01 18.4H128.61V17.2H132.57C133.477 17.2 134.184 17.32 134.69 17.56C135.224 17.7733 135.637 18.1467 135.93 18.68C137.37 17.4267 139.05 16.8 140.97 16.8C142.117 16.8 143.064 17.0667 143.81 17.6ZM151.049 15.04C150.089 15.04 149.342 14.7467 148.809 14.16C148.302 13.5733 148.049 12.8533 148.049 12C148.049 11.3067 148.249 10.76 148.649 10.36C149.076 9.96 149.609 9.76 150.249 9.76C151.209 9.76 151.942 10.0533 152.449 10.64C152.982 11.2267 153.249 11.9467 153.249 12.8C153.249 13.4933 153.036 14.04 152.609 14.44C152.209 14.84 151.689 15.04 151.049 15.04ZM148.449 22.4C148.449 21.04 148.262 20.04 147.889 19.4C147.516 18.7333 146.769 18.4 145.649 18.4H145.249V17.2H150.049C151.009 17.2 151.742 17.36 152.249 17.68C152.756 18 153.116 18.5333 153.329 19.28C153.542 20 153.649 21.04 153.649 22.4V36H148.449V22.4ZM159.153 22.4C159.153 21.04 158.966 20.04 158.593 19.4C158.246 18.7333 157.513 18.4 156.393 18.4H155.993V17.2H159.953C160.86 17.2 161.566 17.32 162.073 17.56C162.606 17.7733 163.02 18.1467 163.313 18.68C164.673 17.4267 166.62 16.8 169.153 16.8C171.686 16.8 173.58 17.4 174.833 18.6C176.113 19.7733 176.753 21.6267 176.753 24.16V36H171.553V24.12C171.553 22.28 171.206 20.9333 170.513 20.08C169.846 19.2267 168.926 18.8 167.753 18.8C166.926 18.8 166.193 18.92 165.553 19.16C164.94 19.3733 164.446 19.6667 164.073 20.04L164.193 20.6C164.3 20.92 164.353 21.44 164.353 22.16V36H159.153V22.4Z" fill="white"/>
<path d="M38.5363 37.8C35.6563 37.8 33.5763 37.1333 32.2963 35.8C31.0429 34.44 30.4163 32.24 30.4163 29.2V15.04L21.6563 36H20.3363L9.61625 14.24V36H7.61625V9.6H12.4963L22.1763 29.24L30.3763 9.6H35.6163V29.2C35.6163 31.7067 35.8296 33.5467 36.2563 34.72C36.6829 35.8933 37.4429 36.5867 38.5363 36.8V37.8Z" fill="#008177"/>
</svg>
